<mxfile host="app.diagrams.net" agent="Mozilla/5.0 (Windows NT 10.0; Win64; x64) AppleWebKit/537.36 (KHTML, like Gecko) Chrome/131.0.0.0 Safari/537.36 Edg/131.0.0.0" version="25.0.3">
  <diagram name="Page-1" id="xCjAeogart6_P44ieRy7">
    <mxGraphModel dx="1366" dy="752" grid="1" gridSize="10" guides="1" tooltips="1" connect="1" arrows="1" fold="1" page="1" pageScale="1" pageWidth="850" pageHeight="1100" math="0" shadow="0">
      <root>
        <mxCell id="0" />
        <mxCell id="1" parent="0" />
        <mxCell id="rQetXRFfhtayCRh5arzR-1" value="Pretrained&lt;div&gt;LLM&lt;/div&gt;" style="sketch=0;outlineConnect=0;fontColor=#232F3E;gradientColor=none;fillColor=#7AA116;strokeColor=none;dashed=0;verticalLabelPosition=top;verticalAlign=bottom;align=center;html=1;fontSize=12;fontStyle=0;aspect=fixed;pointerEvents=1;shape=mxgraph.aws4.iot_sitewise_asset_model;labelPosition=center;" vertex="1" parent="1">
          <mxGeometry x="390" y="400" width="60" height="60" as="geometry" />
        </mxCell>
        <mxCell id="rQetXRFfhtayCRh5arzR-2" value="" style="group" vertex="1" connectable="0" parent="1">
          <mxGeometry x="330" y="570" width="47.75" height="37.75" as="geometry" />
        </mxCell>
        <mxCell id="rQetXRFfhtayCRh5arzR-3" value="" style="html=1;verticalLabelPosition=bottom;align=center;labelBackgroundColor=#ffffff;verticalAlign=top;strokeWidth=2;strokeColor=#0080F0;shadow=0;dashed=0;shape=mxgraph.ios7.icons.back;direction=north;flipV=0;flipH=1;" vertex="1" parent="rQetXRFfhtayCRh5arzR-2">
          <mxGeometry x="22.25" width="25.5" height="30" as="geometry" />
        </mxCell>
        <mxCell id="rQetXRFfhtayCRh5arzR-4" value="" style="html=1;verticalLabelPosition=bottom;align=center;labelBackgroundColor=#ffffff;verticalAlign=top;strokeWidth=2;strokeColor=#0080F0;shadow=0;dashed=0;shape=mxgraph.ios7.icons.back;direction=north;flipV=1;flipH=0;" vertex="1" parent="rQetXRFfhtayCRh5arzR-2">
          <mxGeometry y="7.75" width="25.5" height="30" as="geometry" />
        </mxCell>
        <mxCell id="rQetXRFfhtayCRh5arzR-5" style="edgeStyle=orthogonalEdgeStyle;rounded=0;orthogonalLoop=1;jettySize=auto;html=1;entryX=0.333;entryY=0;entryDx=0;entryDy=0;entryPerimeter=0;" edge="1" parent="1" source="rQetXRFfhtayCRh5arzR-1" target="rQetXRFfhtayCRh5arzR-3">
          <mxGeometry relative="1" as="geometry">
            <Array as="points">
              <mxPoint x="420" y="590" />
            </Array>
          </mxGeometry>
        </mxCell>
        <mxCell id="rQetXRFfhtayCRh5arzR-6" style="edgeStyle=orthogonalEdgeStyle;rounded=0;orthogonalLoop=1;jettySize=auto;html=1;entryX=0.37;entryY=0.01;entryDx=0;entryDy=0;entryPerimeter=0;" edge="1" parent="1" target="rQetXRFfhtayCRh5arzR-4">
          <mxGeometry relative="1" as="geometry">
            <mxPoint x="280" y="530" as="sourcePoint" />
            <Array as="points">
              <mxPoint x="280" y="589" />
            </Array>
          </mxGeometry>
        </mxCell>
        <mxCell id="rQetXRFfhtayCRh5arzR-7" value="" style="edgeStyle=orthogonalEdgeStyle;rounded=0;orthogonalLoop=1;jettySize=auto;html=1;" edge="1" parent="1" source="rQetXRFfhtayCRh5arzR-8" target="rQetXRFfhtayCRh5arzR-12">
          <mxGeometry relative="1" as="geometry" />
        </mxCell>
        <mxCell id="rQetXRFfhtayCRh5arzR-8" value="Finetuned&lt;div&gt;LLM&lt;/div&gt;" style="sketch=0;outlineConnect=0;fontColor=#232F3E;gradientColor=none;fillColor=#01A88D;strokeColor=none;dashed=0;verticalLabelPosition=bottom;verticalAlign=top;align=center;html=1;fontSize=12;fontStyle=0;aspect=fixed;pointerEvents=1;shape=mxgraph.aws4.sagemaker_model;" vertex="1" parent="1">
          <mxGeometry x="323.88" y="660" width="60" height="60" as="geometry" />
        </mxCell>
        <mxCell id="rQetXRFfhtayCRh5arzR-9" style="edgeStyle=orthogonalEdgeStyle;rounded=0;orthogonalLoop=1;jettySize=auto;html=1;" edge="1" parent="1" target="rQetXRFfhtayCRh5arzR-8">
          <mxGeometry relative="1" as="geometry">
            <mxPoint x="354" y="610" as="sourcePoint" />
          </mxGeometry>
        </mxCell>
        <mxCell id="rQetXRFfhtayCRh5arzR-10" value="" style="edgeStyle=orthogonalEdgeStyle;rounded=0;orthogonalLoop=1;jettySize=auto;html=1;" edge="1" parent="1" source="rQetXRFfhtayCRh5arzR-11" target="rQetXRFfhtayCRh5arzR-8">
          <mxGeometry relative="1" as="geometry" />
        </mxCell>
        <mxCell id="rQetXRFfhtayCRh5arzR-11" value="C" style="ellipse;whiteSpace=wrap;html=1;aspect=fixed;fillColor=#f8cecc;strokeColor=#b85450;" vertex="1" parent="1">
          <mxGeometry x="250" y="675" width="30" height="30" as="geometry" />
        </mxCell>
        <mxCell id="rQetXRFfhtayCRh5arzR-12" value="D" style="ellipse;whiteSpace=wrap;html=1;aspect=fixed;fillColor=#dae8fc;strokeColor=#6c8ebf;" vertex="1" parent="1">
          <mxGeometry x="430" y="675" width="30" height="30" as="geometry" />
        </mxCell>
        <mxCell id="rQetXRFfhtayCRh5arzR-13" value="" style="group" vertex="1" connectable="0" parent="1">
          <mxGeometry x="220" y="340" width="120" height="190" as="geometry" />
        </mxCell>
        <mxCell id="rQetXRFfhtayCRh5arzR-14" value="&lt;b&gt;&lt;font style=&quot;font-size: 19px;&quot;&gt;...&lt;/font&gt;&lt;/b&gt;" style="text;html=1;align=center;verticalAlign=middle;resizable=0;points=[];autosize=1;strokeColor=none;fillColor=none;rotation=90;" vertex="1" parent="rQetXRFfhtayCRh5arzR-13">
          <mxGeometry x="70" y="150" width="40" height="40" as="geometry" />
        </mxCell>
        <mxCell id="rQetXRFfhtayCRh5arzR-15" value="Training Data" style="shape=table;startSize=30;container=1;collapsible=0;childLayout=tableLayout;" vertex="1" parent="rQetXRFfhtayCRh5arzR-13">
          <mxGeometry width="120" height="190" as="geometry" />
        </mxCell>
        <mxCell id="rQetXRFfhtayCRh5arzR-16" value="" style="shape=tableRow;horizontal=0;startSize=0;swimlaneHead=0;swimlaneBody=0;strokeColor=inherit;top=0;left=0;bottom=0;right=0;collapsible=0;dropTarget=0;fillColor=none;points=[[0,0.5],[1,0.5]];portConstraint=eastwest;" vertex="1" parent="rQetXRFfhtayCRh5arzR-15">
          <mxGeometry y="30" width="120" height="40" as="geometry" />
        </mxCell>
        <mxCell id="rQetXRFfhtayCRh5arzR-17" value="Inpu&lt;span style=&quot;white-space: pre;&quot;&gt;&#x9;&lt;/span&gt;" style="shape=partialRectangle;html=1;whiteSpace=wrap;connectable=0;strokeColor=inherit;overflow=hidden;fillColor=none;top=0;left=0;bottom=0;right=0;pointerEvents=1;" vertex="1" parent="rQetXRFfhtayCRh5arzR-16">
          <mxGeometry width="60" height="40" as="geometry">
            <mxRectangle width="60" height="40" as="alternateBounds" />
          </mxGeometry>
        </mxCell>
        <mxCell id="rQetXRFfhtayCRh5arzR-18" value="Output" style="shape=partialRectangle;html=1;whiteSpace=wrap;connectable=0;strokeColor=inherit;overflow=hidden;fillColor=none;top=0;left=0;bottom=0;right=0;pointerEvents=1;" vertex="1" parent="rQetXRFfhtayCRh5arzR-16">
          <mxGeometry x="60" width="60" height="40" as="geometry">
            <mxRectangle width="60" height="40" as="alternateBounds" />
          </mxGeometry>
        </mxCell>
        <mxCell id="rQetXRFfhtayCRh5arzR-19" value="" style="shape=tableRow;horizontal=0;startSize=0;swimlaneHead=0;swimlaneBody=0;strokeColor=inherit;top=0;left=0;bottom=0;right=0;collapsible=0;dropTarget=0;fillColor=none;points=[[0,0.5],[1,0.5]];portConstraint=eastwest;" vertex="1" parent="rQetXRFfhtayCRh5arzR-15">
          <mxGeometry y="70" width="120" height="40" as="geometry" />
        </mxCell>
        <mxCell id="rQetXRFfhtayCRh5arzR-20" value="" style="shape=partialRectangle;html=1;whiteSpace=wrap;connectable=0;strokeColor=inherit;overflow=hidden;fillColor=none;top=0;left=0;bottom=0;right=0;pointerEvents=1;" vertex="1" parent="rQetXRFfhtayCRh5arzR-19">
          <mxGeometry width="60" height="40" as="geometry">
            <mxRectangle width="60" height="40" as="alternateBounds" />
          </mxGeometry>
        </mxCell>
        <mxCell id="rQetXRFfhtayCRh5arzR-21" value="" style="shape=partialRectangle;html=1;whiteSpace=wrap;connectable=0;strokeColor=inherit;overflow=hidden;fillColor=none;top=0;left=0;bottom=0;right=0;pointerEvents=1;" vertex="1" parent="rQetXRFfhtayCRh5arzR-19">
          <mxGeometry x="60" width="60" height="40" as="geometry">
            <mxRectangle width="60" height="40" as="alternateBounds" />
          </mxGeometry>
        </mxCell>
        <mxCell id="rQetXRFfhtayCRh5arzR-22" value="" style="shape=tableRow;horizontal=0;startSize=0;swimlaneHead=0;swimlaneBody=0;strokeColor=inherit;top=0;left=0;bottom=0;right=0;collapsible=0;dropTarget=0;fillColor=none;points=[[0,0.5],[1,0.5]];portConstraint=eastwest;" vertex="1" parent="rQetXRFfhtayCRh5arzR-15">
          <mxGeometry y="110" width="120" height="40" as="geometry" />
        </mxCell>
        <mxCell id="rQetXRFfhtayCRh5arzR-23" value="" style="shape=partialRectangle;html=1;whiteSpace=wrap;connectable=0;strokeColor=inherit;overflow=hidden;fillColor=none;top=0;left=0;bottom=0;right=0;pointerEvents=1;" vertex="1" parent="rQetXRFfhtayCRh5arzR-22">
          <mxGeometry width="60" height="40" as="geometry">
            <mxRectangle width="60" height="40" as="alternateBounds" />
          </mxGeometry>
        </mxCell>
        <mxCell id="rQetXRFfhtayCRh5arzR-24" value="" style="shape=partialRectangle;html=1;whiteSpace=wrap;connectable=0;strokeColor=inherit;overflow=hidden;fillColor=none;top=0;left=0;bottom=0;right=0;pointerEvents=1;" vertex="1" parent="rQetXRFfhtayCRh5arzR-22">
          <mxGeometry x="60" width="60" height="40" as="geometry">
            <mxRectangle width="60" height="40" as="alternateBounds" />
          </mxGeometry>
        </mxCell>
        <mxCell id="rQetXRFfhtayCRh5arzR-25" value="" style="shape=tableRow;horizontal=0;startSize=0;swimlaneHead=0;swimlaneBody=0;strokeColor=inherit;top=0;left=0;bottom=0;right=0;collapsible=0;dropTarget=0;fillColor=none;points=[[0,0.5],[1,0.5]];portConstraint=eastwest;" vertex="1" parent="rQetXRFfhtayCRh5arzR-15">
          <mxGeometry y="150" width="120" height="40" as="geometry" />
        </mxCell>
        <mxCell id="rQetXRFfhtayCRh5arzR-26" value="" style="shape=partialRectangle;html=1;whiteSpace=wrap;connectable=0;strokeColor=inherit;overflow=hidden;fillColor=none;top=0;left=0;bottom=0;right=0;pointerEvents=1;" vertex="1" parent="rQetXRFfhtayCRh5arzR-25">
          <mxGeometry width="60" height="40" as="geometry">
            <mxRectangle width="60" height="40" as="alternateBounds" />
          </mxGeometry>
        </mxCell>
        <mxCell id="rQetXRFfhtayCRh5arzR-27" value="" style="shape=partialRectangle;html=1;whiteSpace=wrap;connectable=0;strokeColor=inherit;overflow=hidden;fillColor=none;top=0;left=0;bottom=0;right=0;pointerEvents=1;" vertex="1" parent="rQetXRFfhtayCRh5arzR-25">
          <mxGeometry x="60" width="60" height="40" as="geometry">
            <mxRectangle width="60" height="40" as="alternateBounds" />
          </mxGeometry>
        </mxCell>
        <mxCell id="rQetXRFfhtayCRh5arzR-28" value="C&lt;sup&gt;2&lt;/sup&gt;" style="ellipse;whiteSpace=wrap;html=1;aspect=fixed;fillColor=#f8cecc;strokeColor=#b85450;" vertex="1" parent="rQetXRFfhtayCRh5arzR-13">
          <mxGeometry x="10" y="120" width="30" height="30" as="geometry" />
        </mxCell>
        <mxCell id="rQetXRFfhtayCRh5arzR-29" value="C&lt;sup&gt;1&lt;/sup&gt;" style="ellipse;whiteSpace=wrap;html=1;aspect=fixed;fillColor=#f8cecc;strokeColor=#b85450;" vertex="1" parent="rQetXRFfhtayCRh5arzR-13">
          <mxGeometry x="10" y="80" width="30" height="30" as="geometry" />
        </mxCell>
        <mxCell id="rQetXRFfhtayCRh5arzR-30" value="D&lt;sup&gt;2&lt;/sup&gt;" style="ellipse;whiteSpace=wrap;html=1;aspect=fixed;fillColor=#dae8fc;strokeColor=#6c8ebf;" vertex="1" parent="rQetXRFfhtayCRh5arzR-13">
          <mxGeometry x="70" y="120" width="30" height="30" as="geometry" />
        </mxCell>
        <mxCell id="rQetXRFfhtayCRh5arzR-31" value="D&lt;span style=&quot;font-size: 10px;&quot;&gt;&lt;sup&gt;1&lt;/sup&gt;&lt;/span&gt;" style="ellipse;whiteSpace=wrap;html=1;aspect=fixed;fillColor=#dae8fc;strokeColor=#6c8ebf;" vertex="1" parent="rQetXRFfhtayCRh5arzR-13">
          <mxGeometry x="70" y="80" width="30" height="30" as="geometry" />
        </mxCell>
        <mxCell id="rQetXRFfhtayCRh5arzR-32" value="&lt;b&gt;&lt;font style=&quot;font-size: 19px;&quot;&gt;...&lt;/font&gt;&lt;/b&gt;" style="text;html=1;align=center;verticalAlign=middle;resizable=0;points=[];autosize=1;strokeColor=none;fillColor=none;rotation=90;" vertex="1" parent="rQetXRFfhtayCRh5arzR-13">
          <mxGeometry x="10" y="150" width="40" height="40" as="geometry" />
        </mxCell>
        <mxCell id="rQetXRFfhtayCRh5arzR-33" value="Finetuning" style="text;html=1;align=center;verticalAlign=middle;resizable=0;points=[];autosize=1;strokeColor=none;fillColor=none;" vertex="1" parent="1">
          <mxGeometry x="310" y="548" width="80" height="30" as="geometry" />
        </mxCell>
        <mxCell id="rQetXRFfhtayCRh5arzR-34" value="&lt;div&gt;Offline&lt;/div&gt;" style="shape=umlFrame;whiteSpace=wrap;html=1;pointerEvents=0;recursiveResize=0;container=0;collapsible=0;width=74;dashed=1;fillColor=none;height=30;flipH=1;" vertex="1" parent="1">
          <mxGeometry x="200" y="320" width="270" height="300" as="geometry" />
        </mxCell>
        <mxCell id="rQetXRFfhtayCRh5arzR-35" value="&lt;div&gt;Online&lt;/div&gt;" style="shape=umlFrame;whiteSpace=wrap;html=1;pointerEvents=0;recursiveResize=0;container=0;collapsible=0;width=74;dashed=1;fillColor=none;height=30;" vertex="1" parent="1">
          <mxGeometry x="220" y="630" width="250" height="130" as="geometry" />
        </mxCell>
      </root>
    </mxGraphModel>
  </diagram>
</mxfile>
